<mxfile host="app.diagrams.net" modified="2020-11-16T20:36:35.622Z" agent="5.0 (Windows)" etag="eEmTaQYzUHLD6cuxGRxn" version="13.9.9" type="github">
  <diagram id="C5RBs43oDa-KdzZeNtuy" name="Page-1">
    <mxGraphModel dx="1021" dy="559" grid="1" gridSize="10" guides="1" tooltips="1" connect="1" arrows="1" fold="1" page="1" pageScale="1" pageWidth="827" pageHeight="1169" math="0" shadow="0">
      <root>
        <mxCell id="WIyWlLk6GJQsqaUBKTNV-0" />
        <mxCell id="WIyWlLk6GJQsqaUBKTNV-1" parent="WIyWlLk6GJQsqaUBKTNV-0" />
        <mxCell id="WZsD9ve9CEnU1boIDdpC-1" value="Autódromo" style="swimlane;fontStyle=0;childLayout=stackLayout;horizontal=1;startSize=26;fillColor=none;horizontalStack=0;resizeParent=1;resizeParentMax=0;resizeLast=0;collapsible=1;marginBottom=0;" vertex="1" parent="WIyWlLk6GJQsqaUBKTNV-1">
          <mxGeometry x="590" y="140" width="140" height="104" as="geometry">
            <mxRectangle x="50" y="90" width="90" height="26" as="alternateBounds" />
          </mxGeometry>
        </mxCell>
        <mxCell id="WZsD9ve9CEnU1boIDdpC-2" value="+ field: type" style="text;strokeColor=none;fillColor=none;align=left;verticalAlign=top;spacingLeft=4;spacingRight=4;overflow=hidden;rotatable=0;points=[[0,0.5],[1,0.5]];portConstraint=eastwest;" vertex="1" parent="WZsD9ve9CEnU1boIDdpC-1">
          <mxGeometry y="26" width="140" height="26" as="geometry" />
        </mxCell>
        <mxCell id="WZsD9ve9CEnU1boIDdpC-3" value="+ field: type" style="text;strokeColor=none;fillColor=none;align=left;verticalAlign=top;spacingLeft=4;spacingRight=4;overflow=hidden;rotatable=0;points=[[0,0.5],[1,0.5]];portConstraint=eastwest;" vertex="1" parent="WZsD9ve9CEnU1boIDdpC-1">
          <mxGeometry y="52" width="140" height="26" as="geometry" />
        </mxCell>
        <mxCell id="WZsD9ve9CEnU1boIDdpC-4" value="+ field: type" style="text;strokeColor=none;fillColor=none;align=left;verticalAlign=top;spacingLeft=4;spacingRight=4;overflow=hidden;rotatable=0;points=[[0,0.5],[1,0.5]];portConstraint=eastwest;" vertex="1" parent="WZsD9ve9CEnU1boIDdpC-1">
          <mxGeometry y="78" width="140" height="26" as="geometry" />
        </mxCell>
        <mxCell id="WZsD9ve9CEnU1boIDdpC-6" value="Temporada" style="swimlane;fontStyle=0;childLayout=stackLayout;horizontal=1;startSize=26;fillColor=none;horizontalStack=0;resizeParent=1;resizeParentMax=0;resizeLast=0;collapsible=1;marginBottom=0;" vertex="1" parent="WIyWlLk6GJQsqaUBKTNV-1">
          <mxGeometry x="40" y="520" width="140" height="104" as="geometry" />
        </mxCell>
        <mxCell id="WZsD9ve9CEnU1boIDdpC-7" value="-Equipes: List" style="text;strokeColor=none;fillColor=none;align=left;verticalAlign=top;spacingLeft=4;spacingRight=4;overflow=hidden;rotatable=0;points=[[0,0.5],[1,0.5]];portConstraint=eastwest;" vertex="1" parent="WZsD9ve9CEnU1boIDdpC-6">
          <mxGeometry y="26" width="140" height="26" as="geometry" />
        </mxCell>
        <mxCell id="WZsD9ve9CEnU1boIDdpC-8" value="+ field: type" style="text;strokeColor=none;fillColor=none;align=left;verticalAlign=top;spacingLeft=4;spacingRight=4;overflow=hidden;rotatable=0;points=[[0,0.5],[1,0.5]];portConstraint=eastwest;" vertex="1" parent="WZsD9ve9CEnU1boIDdpC-6">
          <mxGeometry y="52" width="140" height="26" as="geometry" />
        </mxCell>
        <mxCell id="WZsD9ve9CEnU1boIDdpC-9" value="+ field: type" style="text;strokeColor=none;fillColor=none;align=left;verticalAlign=top;spacingLeft=4;spacingRight=4;overflow=hidden;rotatable=0;points=[[0,0.5],[1,0.5]];portConstraint=eastwest;" vertex="1" parent="WZsD9ve9CEnU1boIDdpC-6">
          <mxGeometry y="78" width="140" height="26" as="geometry" />
        </mxCell>
        <mxCell id="WZsD9ve9CEnU1boIDdpC-10" value="Corrida" style="swimlane;fontStyle=0;childLayout=stackLayout;horizontal=1;startSize=26;fillColor=none;horizontalStack=0;resizeParent=1;resizeParentMax=0;resizeLast=0;collapsible=1;marginBottom=0;" vertex="1" parent="WIyWlLk6GJQsqaUBKTNV-1">
          <mxGeometry x="590" y="510" width="140" height="104" as="geometry" />
        </mxCell>
        <mxCell id="WZsD9ve9CEnU1boIDdpC-11" value="+ field: type" style="text;strokeColor=none;fillColor=none;align=left;verticalAlign=top;spacingLeft=4;spacingRight=4;overflow=hidden;rotatable=0;points=[[0,0.5],[1,0.5]];portConstraint=eastwest;" vertex="1" parent="WZsD9ve9CEnU1boIDdpC-10">
          <mxGeometry y="26" width="140" height="26" as="geometry" />
        </mxCell>
        <mxCell id="WZsD9ve9CEnU1boIDdpC-12" value="+ field: type" style="text;strokeColor=none;fillColor=none;align=left;verticalAlign=top;spacingLeft=4;spacingRight=4;overflow=hidden;rotatable=0;points=[[0,0.5],[1,0.5]];portConstraint=eastwest;" vertex="1" parent="WZsD9ve9CEnU1boIDdpC-10">
          <mxGeometry y="52" width="140" height="26" as="geometry" />
        </mxCell>
        <mxCell id="WZsD9ve9CEnU1boIDdpC-13" value="+ field: type" style="text;strokeColor=none;fillColor=none;align=left;verticalAlign=top;spacingLeft=4;spacingRight=4;overflow=hidden;rotatable=0;points=[[0,0.5],[1,0.5]];portConstraint=eastwest;" vertex="1" parent="WZsD9ve9CEnU1boIDdpC-10">
          <mxGeometry y="78" width="140" height="26" as="geometry" />
        </mxCell>
        <mxCell id="WZsD9ve9CEnU1boIDdpC-14" value="Equipe" style="swimlane;fontStyle=0;childLayout=stackLayout;horizontal=1;startSize=26;fillColor=none;horizontalStack=0;resizeParent=1;resizeParentMax=0;resizeLast=0;collapsible=1;marginBottom=0;" vertex="1" parent="WIyWlLk6GJQsqaUBKTNV-1">
          <mxGeometry x="40" y="318" width="140" height="68" as="geometry" />
        </mxCell>
        <mxCell id="WZsD9ve9CEnU1boIDdpC-15" value="- Piloto: Piloto" style="text;strokeColor=none;fillColor=none;align=left;verticalAlign=top;spacingLeft=4;spacingRight=4;overflow=hidden;rotatable=0;points=[[0,0.5],[1,0.5]];portConstraint=eastwest;" vertex="1" parent="WZsD9ve9CEnU1boIDdpC-14">
          <mxGeometry y="26" width="140" height="42" as="geometry" />
        </mxCell>
        <mxCell id="WZsD9ve9CEnU1boIDdpC-18" value="Carro" style="swimlane;fontStyle=0;childLayout=stackLayout;horizontal=1;startSize=26;fillColor=none;horizontalStack=0;resizeParent=1;resizeParentMax=0;resizeLast=0;collapsible=1;marginBottom=0;" vertex="1" parent="WIyWlLk6GJQsqaUBKTNV-1">
          <mxGeometry x="590" y="318" width="140" height="104" as="geometry" />
        </mxCell>
        <mxCell id="WZsD9ve9CEnU1boIDdpC-19" value="+ field: type" style="text;strokeColor=none;fillColor=none;align=left;verticalAlign=top;spacingLeft=4;spacingRight=4;overflow=hidden;rotatable=0;points=[[0,0.5],[1,0.5]];portConstraint=eastwest;" vertex="1" parent="WZsD9ve9CEnU1boIDdpC-18">
          <mxGeometry y="26" width="140" height="26" as="geometry" />
        </mxCell>
        <mxCell id="WZsD9ve9CEnU1boIDdpC-20" value="+ field: type" style="text;strokeColor=none;fillColor=none;align=left;verticalAlign=top;spacingLeft=4;spacingRight=4;overflow=hidden;rotatable=0;points=[[0,0.5],[1,0.5]];portConstraint=eastwest;" vertex="1" parent="WZsD9ve9CEnU1boIDdpC-18">
          <mxGeometry y="52" width="140" height="26" as="geometry" />
        </mxCell>
        <mxCell id="WZsD9ve9CEnU1boIDdpC-21" value="+ field: type" style="text;strokeColor=none;fillColor=none;align=left;verticalAlign=top;spacingLeft=4;spacingRight=4;overflow=hidden;rotatable=0;points=[[0,0.5],[1,0.5]];portConstraint=eastwest;" vertex="1" parent="WZsD9ve9CEnU1boIDdpC-18">
          <mxGeometry y="78" width="140" height="26" as="geometry" />
        </mxCell>
        <mxCell id="WZsD9ve9CEnU1boIDdpC-22" value="Mecânico" style="swimlane;fontStyle=0;childLayout=stackLayout;horizontal=1;startSize=26;fillColor=none;horizontalStack=0;resizeParent=1;resizeParentMax=0;resizeLast=0;collapsible=1;marginBottom=0;" vertex="1" parent="WIyWlLk6GJQsqaUBKTNV-1">
          <mxGeometry x="810" y="320" width="140" height="104" as="geometry" />
        </mxCell>
        <mxCell id="WZsD9ve9CEnU1boIDdpC-23" value="+ field: type" style="text;strokeColor=none;fillColor=none;align=left;verticalAlign=top;spacingLeft=4;spacingRight=4;overflow=hidden;rotatable=0;points=[[0,0.5],[1,0.5]];portConstraint=eastwest;" vertex="1" parent="WZsD9ve9CEnU1boIDdpC-22">
          <mxGeometry y="26" width="140" height="26" as="geometry" />
        </mxCell>
        <mxCell id="WZsD9ve9CEnU1boIDdpC-24" value="+ field: type" style="text;strokeColor=none;fillColor=none;align=left;verticalAlign=top;spacingLeft=4;spacingRight=4;overflow=hidden;rotatable=0;points=[[0,0.5],[1,0.5]];portConstraint=eastwest;" vertex="1" parent="WZsD9ve9CEnU1boIDdpC-22">
          <mxGeometry y="52" width="140" height="26" as="geometry" />
        </mxCell>
        <mxCell id="WZsD9ve9CEnU1boIDdpC-25" value="+ field: type" style="text;strokeColor=none;fillColor=none;align=left;verticalAlign=top;spacingLeft=4;spacingRight=4;overflow=hidden;rotatable=0;points=[[0,0.5],[1,0.5]];portConstraint=eastwest;" vertex="1" parent="WZsD9ve9CEnU1boIDdpC-22">
          <mxGeometry y="78" width="140" height="26" as="geometry" />
        </mxCell>
        <mxCell id="WZsD9ve9CEnU1boIDdpC-26" value="Piloto" style="swimlane;fontStyle=0;childLayout=stackLayout;horizontal=1;startSize=26;fillColor=none;horizontalStack=0;resizeParent=1;resizeParentMax=0;resizeLast=0;collapsible=1;marginBottom=0;" vertex="1" parent="WIyWlLk6GJQsqaUBKTNV-1">
          <mxGeometry x="330" y="318" width="140" height="78" as="geometry" />
        </mxCell>
        <mxCell id="WZsD9ve9CEnU1boIDdpC-28" value="+ field: type" style="text;strokeColor=none;fillColor=none;align=left;verticalAlign=top;spacingLeft=4;spacingRight=4;overflow=hidden;rotatable=0;points=[[0,0.5],[1,0.5]];portConstraint=eastwest;" vertex="1" parent="WZsD9ve9CEnU1boIDdpC-26">
          <mxGeometry y="26" width="140" height="26" as="geometry" />
        </mxCell>
        <mxCell id="WZsD9ve9CEnU1boIDdpC-29" value="+ field: type" style="text;strokeColor=none;fillColor=none;align=left;verticalAlign=top;spacingLeft=4;spacingRight=4;overflow=hidden;rotatable=0;points=[[0,0.5],[1,0.5]];portConstraint=eastwest;" vertex="1" parent="WZsD9ve9CEnU1boIDdpC-26">
          <mxGeometry y="52" width="140" height="26" as="geometry" />
        </mxCell>
        <mxCell id="WZsD9ve9CEnU1boIDdpC-30" value="&lt;div&gt;&lt;br&gt;&lt;/div&gt;&lt;div&gt;&lt;br&gt;&lt;/div&gt;" style="endArrow=open;html=1;endSize=12;startArrow=diamondThin;startSize=14;startFill=1;edgeStyle=orthogonalEdgeStyle;align=left;verticalAlign=bottom;entryX=1;entryY=0.75;entryDx=0;entryDy=0;" edge="1" parent="WIyWlLk6GJQsqaUBKTNV-1" target="WZsD9ve9CEnU1boIDdpC-14">
          <mxGeometry x="-0.4663" y="-69" relative="1" as="geometry">
            <mxPoint x="330" y="369.40999999999997" as="sourcePoint" />
            <mxPoint x="230" y="369.40999999999997" as="targetPoint" />
            <mxPoint as="offset" />
          </mxGeometry>
        </mxCell>
        <mxCell id="WZsD9ve9CEnU1boIDdpC-31" value="" style="endArrow=none;html=1;edgeStyle=orthogonalEdgeStyle;" edge="1" parent="WIyWlLk6GJQsqaUBKTNV-1">
          <mxGeometry relative="1" as="geometry">
            <mxPoint x="470" y="370" as="sourcePoint" />
            <mxPoint x="590" y="370" as="targetPoint" />
            <Array as="points">
              <mxPoint x="470" y="370" />
              <mxPoint x="590" y="370" />
            </Array>
          </mxGeometry>
        </mxCell>
        <mxCell id="WZsD9ve9CEnU1boIDdpC-34" value="" style="endArrow=none;html=1;edgeStyle=orthogonalEdgeStyle;entryX=-0.011;entryY=-0.016;entryDx=0;entryDy=0;entryPerimeter=0;exitX=1.031;exitY=0.106;exitDx=0;exitDy=0;exitPerimeter=0;" edge="1" parent="WIyWlLk6GJQsqaUBKTNV-1" source="WZsD9ve9CEnU1boIDdpC-20" target="WZsD9ve9CEnU1boIDdpC-24">
          <mxGeometry relative="1" as="geometry">
            <mxPoint x="430" y="280" as="sourcePoint" />
            <mxPoint x="590" y="280" as="targetPoint" />
            <Array as="points">
              <mxPoint x="809" y="373" />
            </Array>
          </mxGeometry>
        </mxCell>
        <mxCell id="WZsD9ve9CEnU1boIDdpC-44" value="" style="endArrow=open;html=1;endSize=12;startArrow=diamondThin;startSize=14;startFill=0;edgeStyle=orthogonalEdgeStyle;exitX=0.5;exitY=1;exitDx=0;exitDy=0;entryX=0.5;entryY=0;entryDx=0;entryDy=0;" edge="1" parent="WIyWlLk6GJQsqaUBKTNV-1" source="WZsD9ve9CEnU1boIDdpC-14" target="WZsD9ve9CEnU1boIDdpC-6">
          <mxGeometry relative="1" as="geometry">
            <mxPoint x="180" y="460" as="sourcePoint" />
            <mxPoint x="340" y="460" as="targetPoint" />
          </mxGeometry>
        </mxCell>
        <mxCell id="WZsD9ve9CEnU1boIDdpC-45" value="&lt;div&gt;1...*&lt;/div&gt;" style="edgeLabel;resizable=0;html=1;align=left;verticalAlign=top;" connectable="0" vertex="1" parent="WZsD9ve9CEnU1boIDdpC-44">
          <mxGeometry x="-1" relative="1" as="geometry">
            <mxPoint x="10" y="8" as="offset" />
          </mxGeometry>
        </mxCell>
        <mxCell id="WZsD9ve9CEnU1boIDdpC-47" value="1" style="text;html=1;strokeColor=none;fillColor=none;align=center;verticalAlign=middle;whiteSpace=wrap;rounded=0;" vertex="1" parent="WIyWlLk6GJQsqaUBKTNV-1">
          <mxGeometry x="110" y="490" width="40" height="20" as="geometry" />
        </mxCell>
        <mxCell id="WZsD9ve9CEnU1boIDdpC-51" value="" style="endArrow=open;html=1;endSize=12;startArrow=diamondThin;startSize=14;startFill=0;edgeStyle=orthogonalEdgeStyle;entryX=0.5;entryY=0;entryDx=0;entryDy=0;" edge="1" parent="WIyWlLk6GJQsqaUBKTNV-1" target="WZsD9ve9CEnU1boIDdpC-10">
          <mxGeometry relative="1" as="geometry">
            <mxPoint x="660" y="420" as="sourcePoint" />
            <mxPoint x="580" y="350" as="targetPoint" />
          </mxGeometry>
        </mxCell>
        <mxCell id="WZsD9ve9CEnU1boIDdpC-52" value="1...*" style="edgeLabel;resizable=0;html=1;align=left;verticalAlign=top;" connectable="0" vertex="1" parent="WZsD9ve9CEnU1boIDdpC-51">
          <mxGeometry x="-1" relative="1" as="geometry">
            <mxPoint x="10" as="offset" />
          </mxGeometry>
        </mxCell>
        <mxCell id="WZsD9ve9CEnU1boIDdpC-53" value="1" style="edgeLabel;resizable=0;html=1;align=right;verticalAlign=top;" connectable="0" vertex="1" parent="WZsD9ve9CEnU1boIDdpC-51">
          <mxGeometry x="1" relative="1" as="geometry" />
        </mxCell>
        <mxCell id="WZsD9ve9CEnU1boIDdpC-66" value="" style="endArrow=none;html=1;edgeStyle=orthogonalEdgeStyle;entryX=0.5;entryY=0;entryDx=0;entryDy=0;exitX=0.501;exitY=1.111;exitDx=0;exitDy=0;exitPerimeter=0;" edge="1" parent="WIyWlLk6GJQsqaUBKTNV-1" source="WZsD9ve9CEnU1boIDdpC-4" target="WZsD9ve9CEnU1boIDdpC-18">
          <mxGeometry relative="1" as="geometry">
            <mxPoint x="420" y="380" as="sourcePoint" />
            <mxPoint x="580" y="380" as="targetPoint" />
            <Array as="points">
              <mxPoint x="660" y="290" />
              <mxPoint x="660" y="290" />
            </Array>
          </mxGeometry>
        </mxCell>
        <mxCell id="WZsD9ve9CEnU1boIDdpC-69" value="1" style="text;html=1;strokeColor=none;fillColor=none;align=center;verticalAlign=middle;whiteSpace=wrap;rounded=0;" vertex="1" parent="WIyWlLk6GJQsqaUBKTNV-1">
          <mxGeometry x="180" y="342" width="40" height="20" as="geometry" />
        </mxCell>
        <mxCell id="WZsD9ve9CEnU1boIDdpC-70" value="1...*" style="text;html=1;strokeColor=none;fillColor=none;align=center;verticalAlign=middle;whiteSpace=wrap;rounded=0;" vertex="1" parent="WIyWlLk6GJQsqaUBKTNV-1">
          <mxGeometry x="280" y="342" width="40" height="20" as="geometry" />
        </mxCell>
        <mxCell id="WZsD9ve9CEnU1boIDdpC-71" value="&lt;div&gt;1&lt;/div&gt;" style="text;html=1;strokeColor=none;fillColor=none;align=center;verticalAlign=middle;whiteSpace=wrap;rounded=0;" vertex="1" parent="WIyWlLk6GJQsqaUBKTNV-1">
          <mxGeometry x="660" y="480" width="40" height="20" as="geometry" />
        </mxCell>
      </root>
    </mxGraphModel>
  </diagram>
</mxfile>
